<svg width="1334" height="588" viewBox="0 0 1334 588" fill="none" xmlns="http://www.w3.org/2000/svg">
<path d="M1242.5 490.5L1222.5 509L1222 509C1215 500 1208 496 1195 496H1194.5C1175.5 496 1164.5 510.5 1164.5 527.5V528C1165.5 547.5 1176 558.5 1195 560H1195.5C1207.69 558.948 1213.46 556.184 1222.5 547L1223 546.5L1243 565C1226.88 580.906 1216.25 585.438 1193.5 586H1193C1152.5 586 1130 554.5 1133 521.5V520.5C1136 498.5 1146 484 1169 473.5L1170 473C1172.5 470.5 1223.56 461.007 1242.5 490.5Z" fill="white" stroke="white" stroke-linecap="round" stroke-linejoin="round"/>
<path d="M283.5 1H85H84.5L75 48.5L70 73L68 83.5L65 100.5H269C436.524 100.375 380.725 340.98 242 340.5L194 341.5H142L179.5 153.5L183 135.5H182H58L2.5 410L1.5 419V420L30 414.5L52.5 410L77 405L98.5 400.5L123 395.5L150.5 390.5L177.5 385.5L205 380.5L242 373.5L261 370L293.5 364.5L342 356.5L375 351.5L408.5 346.5L438.5 342L449.5 340.5C510.98 259.587 559.178 10.3596 283.5 1Z" fill="white" stroke="white" stroke-linecap="round" stroke-linejoin="round"/>
<path d="M332 397L397 389.5V390C345.716 424.235 310.931 435.181 238.5 440.5L7.5 441L54 434L94 428.5L138 422L184 416L244 408.5L306.5 400.5L332 397Z" fill="white" stroke="white" stroke-linecap="round" stroke-linejoin="round"/>
<path d="M787 1H426C477.151 33.0349 493.954 55.2169 515 100H575L529 329L657.5 313L699.5 100H768.5L785.5 16L788 1H787Z" fill="white"/>
<path d="M822 1L762.5 300L880 289.5L895.5 210.5L927.5 284.5L1128 272L1175.5 211L1164.5 270L1281 265.5L1333 1H1226L1027 254.5L924 1H822Z" fill="white"/>
<path d="M631.5 441L646 364L519 376L506.5 441H631.5Z" fill="white"/>
<path d="M735 441L752 354L803 349.5L868.5 345L849 441H735Z" fill="white"/>
<path d="M975 397.5L951.5 340L1080.5 333L1030.5 397.5H975Z" fill="white"/>
<path d="M1268.5 328L1152 330.5L1131 440.5H1246.5L1268.5 328Z" fill="white"/>
<path d="M102.5 471H1V497.5H36V584H68.5V497.5H102.5V471Z" fill="white"/>
<path d="M232.5 544V471.5H264V538L265 544C269.378 565.1 300.5 565.5 306.5 544V538V471.5H337.5V541.5V542C337.5 597 239 605.5 232.5 544Z" fill="white"/>
<path d="M478.5 584.5L478 471H510V517.5L553 471H589L543 521L591 584L553 584.5L521.5 544.5L510 556V584.5H478.5Z" fill="white"/>
<path d="M599 471V501H599.204L629.204 471H599Z" fill="white"/>
<path d="M631 584H599.204V505.296L631 473.5V584Z" fill="white"/>
<path d="M653.5 584V471H680L729.5 530V471H761V584H734.5L685 525L685.5 584H653.5Z" fill="white"/>
<path d="M983.5 471.5H954V501L983.5 471.5Z" fill="white"/>
<path d="M986 584V473.5L954 505.5V584H986Z" fill="white"/>
<path d="M1009 584V471.5H1034.5L1084.5 530.5V471.5H1115.5V584H1089L1039.5 525V584H1009Z" fill="white"/>
<path d="M463.5 491L443.5 509.5L443 509.5C436 500.5 429 496.5 416 496.5H415.5C396.5 496.5 385.5 511 385.5 528V528.5C386.5 548 397 559 416 560.5H416.5C428.694 559.448 434.465 556.684 443.5 547.5L444 547L464 565.5C447.876 581.406 437.248 585.938 414.5 586.5H414C373.5 586.5 351 555 354 522V521C356.995 499.039 366.964 484.551 389.878 474.056L391 473.5C393.5 471 444.557 461.507 463.5 491Z" fill="white"/>
<path d="M889 490L869 508L868.5 507.5C862.5 500 854 495.5 841 495.5C822 495.5 810 511 810 528V528.5C811 548 821.5 559 840.5 560.5H841C853.064 559.459 855.939 557.542 858.904 555.564L859 555.5V525.5H887V572C878 578.5 861.748 585.938 839 586.5H838.5C798 586.5 775.5 555 778.5 522V521C781.495 499.039 791.464 484.551 814.378 474.056L815.5 473.5C818 471 866.5 460 889 490Z" fill="white"/>
<path fill-rule="evenodd" clip-rule="evenodd" d="M114 471V584H146.5V554H163L183.5 584H218L194.5 549V548.5C232.5 525 217.5 473 170.5 471.5H170L114 471ZM146.5 529.5V497H170.5C189.436 502.084 187.187 525.505 170 529.5H146.5Z" fill="white"/>
<path d="M232.5 471.5C232.5 471.5 232.5 516.078 232.5 544M232.5 471.5H264V538L265 544C269.378 565.1 300.5 565.5 306.5 544V538V471.5H337.5V541.5V542C337.5 597 239 605.5 232.5 544M232.5 471.5V544M390 474C389.959 474.019 389.918 474.037 389.878 474.056M389.878 474.056C366.964 484.551 356.995 499.039 354 521V522C351 555 373.5 586.5 414 586.5H414.5C437.248 585.938 447.876 581.406 464 565.5L444 547L443.5 547.5C434.465 556.684 428.694 559.448 416.5 560.5H416C397 559 386.5 548 385.5 528.5V528C385.5 511 396.5 496.5 415.5 496.5H416C429 496.5 436 500.5 443 509.5L443.5 509.5L463.5 491C444.557 461.507 393.5 471 391 473.5L389.878 474.056ZM859 555.5V525.5H887V572C878 578.5 861.748 585.938 839 586.5H838.5C798 586.5 775.5 555 778.5 522V521C781.495 499.039 791.464 484.551 814.378 474.056M859 555.5L858.904 555.564M859 555.5C858.968 555.521 858.936 555.543 858.904 555.564M814.5 474L814.378 474.056M814.378 474.056L815.5 473.5C818 471 866.5 460 889 490L869 508L868.5 507.5C862.5 500 854 495.5 841 495.5C822 495.5 810 511 810 528V528.5C811 548 821.5 559 840.5 560.5H841C853.064 559.459 855.939 557.542 858.904 555.564M426 1H787H788L785.5 16L768.5 100H699.5L657.5 313L529 329L575 100H515C493.954 55.2169 477.151 33.0349 426 1ZM762.5 300L822 1H924L1027 254.5L1226 1H1333L1281 265.5L1164.5 270L1175.5 211L1128 272L927.5 284.5L895.5 210.5L880 289.5L762.5 300ZM646 364L631.5 441H506.5L519 376L646 364ZM752 354L735 441H849L868.5 345L803 349.5L752 354ZM951.5 340L975 397.5H1030.5L1080.5 333L951.5 340ZM1152 330.5L1268.5 328L1246.5 440.5H1131L1152 330.5ZM1 471H102.5V497.5H68.5V584H36V497.5H1V471ZM114 471V584H146.5V554H163L183.5 584H218L194.5 549V548.5C232.5 525 217.5 473 170.5 471.5H170L114 471ZM478 471L478.5 584.5H510V556L521.5 544.5L553 584.5L591 584L543 521L589 471H553L510 517.5V471H478ZM599 501V471H629.204L599.204 501H599ZM599.204 584H631V473.5L599.204 505.296V584ZM653.5 471V584H685.5L685 525L734.5 584H761V471H729.5V530L680 471H653.5ZM954 471.5H983.5L954 501V471.5ZM986 473.5V584H954V505.5L986 473.5ZM1009 471.5V584H1039.5V525L1089 584H1115.5V471.5H1084.5V530.5L1034.5 471.5H1009ZM146.5 497V529.5H170C187.187 525.505 189.436 502.084 170.5 497H146.5Z" stroke="white" stroke-linecap="round" stroke-linejoin="round"/>
</svg>
